<?xml version="1.0" encoding="UTF-8"?>
<svg version="1.1" viewBox="0 0 1600 1600" width="1280" height="1280" xmlns="http://www.w3.org/2000/svg">
<path transform="translate(418 99.9)" d="m0 0c1.72-0.00105 3.43-0.00253 5.15-0.0044 4.67-0.00386 9.34-0.00158 14 0.00178 5.1 0.00255 10.2-7.3e-4 15.3-0.00324 8.92-0.0036 17.8-0.00351 26.8-9.53e-4 13.3 0.00379 26.5 0.00184 39.8-0.00121 22.3-0.00496 44.6-0.00515 67-0.00242 0.679 8.28e-5 1.36 1.66e-4 2.06 2.51e-4 0.68 8.29e-5 1.36 1.66e-4 2.06 2.51e-4 20.7 0.00253 41.5 0.00317 62.2 0.00198 1.39-7.75e-5 2.78-1.55e-4 4.17-2.31e-4 5.59-3.1e-4 11.2-6.29e-4 16.8-9.6e-4 15.6-9.17e-4 31.2-0.00149 46.8-0.00179 0.711-1.36e-5 1.42-2.73e-5 2.15-4.14e-5 22.6-4.09e-4 45.3 7.17e-4 67.9 0.00289 0.734 7.02e-5 1.47 1.4e-4 2.22 2.13e-4 11.9 0.00114 23.8 0.00236 35.8 0.00359 47.3 0.00486 94.5 0.00463 142-2.31e-4 11.9-0.00122 23.8-0.00243 35.7-0.00357 1.1-1.06e-4 1.1-1.06e-4 2.22-2.13e-4 22.6-0.00216 45.2-0.00307 67.9-0.00264 1.07 2.04e-5 1.07 2.04e-5 2.15 4.12e-5 15.6 3.13e-4 31.2 9.46e-4 46.8 0.00187 5.58 3.29e-4 11.2 6.42e-4 16.7 9.51e-4 1.39 7.74e-5 2.78 1.56e-4 4.17 2.36e-4 20.7 0.00119 41.4 1.81e-4 62.2-0.00235 1.02-1.24e-4 1.02-1.24e-4 2.06-2.51e-4 1.02-1.24e-4 1.02-1.24e-4 2.05-2.51e-4 22.9-0.00276 45.8-0.00173 68.6 0.00353 13.2 0.00293 26.4 0.00313 39.5-6.46e-4 8.81-0.00225 17.6-8.36e-4 26.4 0.0035 5.01 0.00237 10 0.00321 15-4.06e-4 50.6-0.0338 50.6-0.0338 68 2.32 0.939 0.127 1.88 0.253 2.84 0.384 28.8 4.21 56.8 15.8 80.7 32.4 0.629 0.438 1.26 0.876 1.91 1.33 46.1 32.5 73.3 80.6 83.1 136 0.174 0.918 0.348 1.84 0.527 2.78 1.62 9.29 1.76 18.4 1.73 27.8 3e-3 1.76 0.00687 3.52 0.0115 5.28 0.0102 4.82 0.00813 9.65 0.00394 14.5-0.00237 5.25 0.00681 10.5 0.0145 15.8 0.0118 9.2 0.0162 18.4 0.0157 27.6-7.94e-4 13.7 0.00976 27.4 0.0224 41.1 0.0234 25.9 0.033 51.7 0.0378 77.6 5.24e-4 2.85 0.00105 5.7 0.00158 8.56 1.94e-4 1.06 1.94e-4 1.06 3.91e-4 2.15 0.00291 15.7 0.00907 31.4 0.0157 47.1 0.00272 6.47 0.00535 12.9 0.00799 19.4 2.91e-4 0.715 5.82e-4 1.43 8.82e-4 2.17 0.0166 41 0.0285 81.9 0.0309 123 9.46e-5 1.53 1.9e-4 3.06 2.85e-4 4.6 4.28e-4 6.92 8.33e-4 13.8 0.00124 20.8 1.82e-4 3.09 3.66e-4 6.17 5.52e-4 9.26 9.2e-5 1.54 1.82e-4 3.09 2.71e-4 4.63 0.00281 48.8 0.0245 97.6 0.0614 146 0.0275 36.4 0.0534 72.8 0.0599 109 1.33e-4 0.734 2.67e-4 1.47 4.04e-4 2.22 0.00287 16.1 0.00429 32.2 0.00436 48.3 3.97e-5 5.76 1.97e-4 11.5 4.15e-4 17.3 5.36e-5 1.43 1.02e-4 2.87 1.44e-4 4.3 7.42e-4 22.8 0.0164 45.6 0.0396 68.4 0.024 23.6 0.0296 47.2 0.0146 70.9-0.00813 13.6-0.00254 27.2 0.0232 40.8 0.0158 9.1 0.0132 18.2-0.00391 27.3-0.00922 5.18-0.0109 10.4 0.00997 15.5 0.242 64.1-16 121-61.6 168-2.56 2.48-5.22 4.76-8 7-0.73 0.598-0.73 0.598-1.47 1.21-8.46 6.92-17.2 13.1-26.5 18.8-1.1 0.678-2.19 1.36-3.32 2.05-9.49 5.66-19.4 9.96-29.7 13.9-0.64 0.249-1.28 0.498-1.94 0.754-7.96 3.02-16.1 5.07-24.4 6.93-0.888 0.203-1.78 0.405-2.69 0.614-15 3.21-30.2 4.03-45.5 4.32-1.74 0.0379-3.49 0.0759-5.23 0.114-18.5 0.383-37 0.4-55.6 0.373-5.06-0.00603-10.1-0.00599-15.2-0.00682-9.98-0.00256-20-0.0105-29.9-0.0203-12-0.0115-24-0.0169-35.9-0.0223-26.2-0.0121-52.4-0.0323-78.5-0.0548-0.675-5.79e-4 -1.35-0.00116-2.05-0.00175-1.37-0.00117-2.73-0.00234-4.1-0.00352-14.4-0.0123-28.7-0.0233-43.1-0.0339-46.2-0.0343-92.4-0.0703-139-0.114-2.2-0.00208-4.4-0.00416-6.6-0.00624-5.15-0.00487-10.3-0.00974-15.4-0.0146-4.43-0.00419-8.86-0.00838-13.3-0.0126-1.48-0.0014-2.96-0.0028-4.44-0.00419-46.8-0.0443-93.6-0.0776-140-0.102-35-0.0185-69.9-0.038-105-0.069-0.704-6.22e-4 -1.41-0.00124-2.13-0.00189-15.5-0.0137-30.9-0.0283-46.4-0.0436-5.53-0.00548-11.1-0.0109-16.6-0.0163-1.38-0.00134-2.75-0.00268-4.13-0.00402-21.9-0.0213-43.7-0.0337-65.6-0.0415-22.6-0.00813-45.3-0.0271-67.9-0.0584-13-0.0177-26.1-0.0272-39.1-0.0248-8.72 8.07e-4 -17.4-0.0093-26.2-0.0281-4.96-0.0104-9.92-0.0162-14.9-0.00872-57.4 0.0776-110-11.3-153-51.4-1.93-1.77-3.91-3.45-5.93-5.12-3.86-3.3-7.06-7.05-10.3-10.9-1.16-1.35-1.16-1.35-2.35-2.72-26.8-31.4-42.9-70.2-46.7-111-0.0834-0.912-0.167-1.82-0.253-2.76-0.855-10.5-0.889-20.9-0.877-31.4-0.00136-2-0.00314-4-0.00531-6-0.00453-5.39-0.00281-10.8 3.79e-4 -16.2 0.00254-5.65 1.81e-4 -11.3-0.00139-16.9-0.00181-9.47 5.66e-4 -18.9 0.00534-28.4 0.00546-11 0.00366-21.9-0.00183-32.9-0.00453-9.42-0.00518-18.8-0.00256-28.3 0.00156-5.62 0.00176-11.2-0.00154-16.9-0.00288-5.27-9.08e-4 -10.5 0.00489-15.8 0.00133-1.94 9.33e-4 -3.88-0.00126-5.82-0.00271-2.64 6.67e-4 -5.27 0.00568-7.91-0.00223-0.777-0.00446-1.55-0.00676-2.36 0.0196-5.26 0.0196-5.26 1.13-6.38 3.04-0.101 6.05-0.136 9.09-0.129 0.954-0.00175 1.91-0.0035 2.89-0.00531 3.17-0.00442 6.34-0.00148 9.51 0.00189 2.19-6.73e-4 4.39-0.00164 6.58-0.0029 4.6-0.00148 9.21 6.78e-4 13.8 0.00534 5.92 0.0057 11.8 0.00242 17.7-0.00357 4.53-0.0036 9.06-0.00247 13.6 1.28e-4 2.18 6.69e-4 4.36-1.6e-4 6.55-0.00248 3.04-0.00253 6.09 0.00131 9.13 0.0069 0.911-0.00202 1.82-0.00405 2.76-0.00613 6.22 0.0213 6.22 0.0213 7.33 1.14 0.104 2.66 0.142 5.28 0.138 7.94 0.00282 0.842 0.00564 1.68 0.00855 2.55 0.00839 2.85 0.00969 5.69 0.0111 8.54 0.00467 2.03 0.00981 4.06 0.0154 6.09 0.0113 4.39 0.0197 8.78 0.0261 13.2 0.0107 6.95 0.0309 13.9 0.0531 20.9 0.0619 19.8 0.116 39.6 0.149 59.3 0.0184 10.9 0.0474 21.8 0.088 32.7 0.021 5.77 0.0365 11.5 0.0388 17.3 0.00216 5.44 0.0182 10.9 0.0444 16.3 0.00713 1.99 0.00932 3.97 0.0059 5.96-0.046 31.7 8.41 58 31 80.8 21.9 20.6 48.9 26.8 78.1 26.7 1.51 0.0032 3.02 0.00726 4.53 0.0121 4.12 0.0107 8.24 0.00926 12.4 0.00565 4.49-0.00172 8.99 0.00818 13.5 0.0166 7.87 0.0131 15.7 0.0189 23.6 0.0198 11.7 0.00138 23.4 0.0142 35.1 0.0293 19.7 0.0251 39.4 0.041 59.1 0.0516 19.5 0.0105 39.1 0.0252 58.6 0.0453 1.22 0.00125 2.44 0.0025 3.69 0.00378 6.19 0.00637 12.4 0.0128 18.6 0.0193 43.9 0.0457 87.7 0.0821 132 0.113 42.4 0.03 84.9 0.0644 127 0.104 1.3 0.00123 2.61 0.00246 3.95 0.00373 11.8 0.0111 23.6 0.0223 35.4 0.0336 28.2 0.0269 56.3 0.053 84.5 0.0787 1.24 0.00113 2.48 0.00226 3.76 0.00343 52.3 0.0477 105 0.0911 157 0.131 6.31 0.00476 12.6 0.0096 18.9 0.0145 21.5 0.0168 43.1 0.0324 64.6 0.0439 9.36 0.00507 18.7 0.0115 28.1 0.0196 6.52 0.00558 13 0.0097 19.6 0.0127 3.73 0.00178 7.45 0.00413 11.2 0.0083 54.1 2.91 54.1 2.91 107-5.66 0.745-0.26 1.49-0.52 2.26-0.788 25.4-9.22 45.2-27.1 57-51.5 2.09-4.81 3.62-9.77 5.08-14.8 0.251-0.854 0.502-1.71 0.76-2.59 3.24-11.8 3.01-23.7 2.99-35.9 0.00135-1.74 0.00313-3.47 0.00531-5.21 0.00472-4.77 0.00323-9.54 7.22e-4 -14.3-0.00164-5.19 0.00251-10.4 0.00591-15.6 0.00515-9.09 0.00657-18.2 0.00554-27.3-0.00152-13.5 0.00264-27 0.00787-40.6 0.00967-25.6 0.0125-51.1 0.0131-76.7 6.47e-5 -2.82 1.33e-4 -5.64 2.03e-4 -8.45 1.7e-5 -0.699 3.4e-5 -1.4 5.15e-5 -2.12 4.09e-4 -15.5 0.0026-31 0.0051-46.5 0.00103-6.38 0.00202-12.8 0.00302-19.2 1.11e-4 -0.706 2.21e-4 -1.41 3.35e-4 -2.14 0.00632-40.4 0.0104-80.8 0.00999-121-1.58e-5 -1.51-3.15e-5 -3.02-4.72e-5 -4.54-7.34e-5 -6.83-1.62e-4 -13.7-2.54e-4 -20.5-4.11e-5 -3.04-8.13e-5 -6.09-1.21e-4 -9.13-2.04e-5 -1.52-4.14e-5 -3.05-6.31e-5 -4.57-6.8e-4 -48.2 0.00664-96.4 0.0205-145 0.0035-12.1 0.00697-24.3 0.0103-36.4 2.03e-4 -0.748 4.06e-4 -1.5 6.15e-4 -2.27 0.00622-23 0.00998-46.1 0.0112-69.1 4e-5 -0.724 7.99e-5 -1.45 1.21e-4 -2.19 8.53e-4 -15.9 0.00111-31.8 8.3e-4 -47.7-9.65e-5 -5.68-1.49e-4 -11.4-1.79e-4 -17.1-7.91e-6 -1.41-1.81e-5 -2.83-3.06e-5 -4.24-1.76e-4 -22.5 0.00552-45.1 0.0142-67.6 0.00889-23.3 0.0105-46.6 0.00369-70-0.0037-13.4-0.00185-26.9 0.00794-40.3 0.00599-8.98 0.00471-18-0.00247-26.9-0.00389-5.12-0.00464-10.2 0.00346-15.3 0.00731-4.66 0.00531-9.32-0.00392-14-0.00171-1.67-1.2e-4 -3.34 0.0053-5.01 0.0923-30.5-7.85-57-29.1-79.4-21.3-20.2-45.9-27.5-74.6-28.3-1.07-0.0315-1.07-0.0315-2.15-0.0636-18-0.521-36.1-0.524-54.1-0.51-4.96 0.00258-9.92-7.4e-4 -14.9-0.00324-8.66-0.00358-17.3-0.00352-26-9.53e-4 -12.9 0.00381-25.8 0.00184-38.6-0.00121-23-0.00525-46-0.00482-69-0.00192-20.1 0.00253-40.3 0.00317-60.4 0.00198-1.35-7.75e-5 -2.7-1.55e-4 -4.06-2.31e-4 -5.43-3.11e-4 -10.9-6.29e-4 -16.3-9.6e-4 -15.2-9.17e-4 -30.4-0.00149-45.5-0.00179-1.04-2.05e-5 -1.04-2.05e-5 -2.09-4.14e-5 -22-4.09e-4 -44 7.15e-4 -66 0.00289-0.713 7.02e-5 -1.43 1.4e-4 -2.16 2.13e-4 -11.6 0.00114-23.1 0.00236-34.7 0.00359-45.9 0.00486-91.8 0.00463-138-2.31e-4 -11.6-0.00122-23.2-0.00243-34.7-0.00357-0.713-7.04e-5 -1.43-1.41e-4 -2.16-2.13e-4 -22-0.00216-44-0.00307-66-0.00264-0.69 1.36e-5 -1.38 2.72e-5 -2.09 4.12e-5 -15.2 3.13e-4 -30.3 9.46e-4 -45.5 0.00187-5.42 3.29e-4 -10.8 6.42e-4 -16.3 9.51e-4 -1.35 7.74e-5 -2.7 1.56e-4 -4.05 2.36e-4 -20.8 0.00123-41.6 1.36e-5 -62.4-0.0026-22.9-0.00286-45.8-0.00214-68.6 0.00328-12.8 0.00293-25.6 0.00313-38.4-6.46e-4 -8.55-0.00225-17.1-8.38e-4 -25.7 0.0035-4.87 0.00237-9.74 0.00321-14.6-4.06e-4 -58.2-0.874-58.2-0.874-108 26.1-0.705 0.636-1.41 1.27-2.14 1.93-18.7 17.7-29.2 42-30.1 67.7-0.112 5.36-0.117 10.7-0.122 16.1-0.00932 2.05-0.0195 4.1-0.0304 6.15-0.0271 5.53-0.0424 11.1-0.0554 16.6-0.0157 5.79-0.0425 11.6-0.068 17.4-0.0467 11-0.0835 21.9-0.117 32.9-0.0383 12.5-0.0877 24.9-0.138 37.4-0.103 25.6-0.192 51.3-0.273 76.9-8.5 0.133-17 0.264-25.5 0.391-3.95 0.0594-7.9 0.12-11.8 0.182-16.1 0.253-32.2 0.476-48.3 0.521-1.84 0.00973-1.84 0.00973-3.72 0.0197-1.67 9.06e-4 -1.67 9.06e-4 -3.38 0.00183-0.973 0.00205-1.95 0.00411-2.95 0.00623-2.31-0.121-2.31-0.121-4.31-1.12-0.0469-26.2-0.0821-52.4-0.104-78.6-0.0103-12.2-0.0243-24.3-0.0473-36.5-0.02-10.6-0.0329-21.2-0.0373-31.8-0.00259-5.61-0.0086-11.2-0.0233-16.8-0.0138-5.3-0.0177-10.6-0.0148-15.9-5.42e-4 -1.93-0.00441-3.85-0.0122-5.78-0.0694-18.1 0.658-36.4 4.43-54.2 0.214-1.03 0.427-2.06 0.647-3.12 6.46-29.8 19.6-57.9 39.2-81.3 0.485-0.585 0.97-1.17 1.47-1.77 5.87-7.05 11.8-14 18.5-20.2 0.843-0.799 0.843-0.799 1.7-1.61 11.9-10.8 25.2-19.7 39.3-27.4 0.66-0.361 1.32-0.722 2-1.09 19.4-10.5 40.6-17.4 62.4-20.7 0.76-0.116 1.52-0.231 2.3-0.351 15.3-2.06 30.8-2.05 46.2-2.03z"/>
<path transform="translate(929 410)" d="m0 0c3.77 2.96 7.34 6.12 10.9 9.37 0.565 0.522 1.13 1.04 1.71 1.58 6.69 6.22 13.1 12.7 19.6 19.1 1.39 1.38 2.77 2.77 4.16 4.15 3.78 3.77 7.55 7.54 11.3 11.3 4.08 4.08 8.17 8.16 12.3 12.2 8.91 8.9 17.8 17.8 26.7 26.7 5.57 5.56 11.1 11.1 16.7 16.7 15.4 15.4 30.9 30.8 46.3 46.3 0.995 0.995 1.99 1.99 2.99 2.98 0.997 0.997 1.99 1.99 2.99 2.99 2 2 4 4 6 6 0.496 0.496 0.992 0.992 1.5 1.5 16.1 16.1 32.2 32.2 48.3 48.3 17.1 17 34.1 34.1 51.2 51.1 9.28 9.28 18.6 18.6 27.9 27.8 7.91 7.89 15.8 15.8 23.7 23.7 4.03 4.03 8.05 8.06 12.1 12.1 3.7 3.68 7.39 7.37 11.1 11.1 1.33 1.33 2.66 2.66 4 3.99 13.6 13.5 25.7 26.8 26 46.9-0.0322 19.7-0.0322 19.7-4.38 28.1-0.436 0.861-0.871 1.72-1.32 2.61-4.49 8.09-10.4 14.7-17.7 20.4-1.21 1.47-2.42 2.94-3.61 4.43-2.04 2.31-4.39 4.18-6.76 6.14-2.17 1.92-3.82 4.17-5.62 6.44-0.969 0.804-1.94 1.61-2.94 2.44-3.14 2.47-3.14 2.47-5.56 5.56-2.59 3.11-5.4 5.42-8.5 8-1.67 2-3.34 4-5 6-1.67 1.33-3.33 2.67-5 4-0.804 0.969-1.61 1.94-2.44 2.94-2.62 3.13-5.44 5.46-8.56 8.06-1.24 1.48-1.24 1.48-2.5 3-1.89 2.26-3.44 3.88-5.69 5.69-2.94 2.19-2.94 2.19-4.81 5.31h-2c-0.33 0.99-0.66 1.98-1 3-1.66 1.34-3.33 2.67-5 4-0.804 0.969-1.61 1.94-2.44 2.94-2.62 3.13-5.44 5.46-8.56 8.06-1.24 1.48-1.24 1.48-2.5 3-2.59 3.11-5.4 5.42-8.5 8-1.24 1.48-1.24 1.48-2.5 3-2.59 3.11-5.4 5.42-8.5 8-1.75 1.94-3.36 3.97-5 6-2.19 2.38-2.19 2.38-4 4h-2c-0.33 0.99-0.66 1.98-1 3-1.66 1.34-3.33 2.67-5 4-0.804 0.969-1.61 1.94-2.44 2.94-2.56 3.06-2.56 3.06-5.5 5.5-3.02 2.53-5.33 5.14-7.77 8.21-0.428 0.447-0.856 0.895-1.3 1.36h-2c-0.33 0.99-0.66 1.98-1 3-1.66 1.34-3.33 2.67-5 4-0.804 0.969-1.61 1.94-2.44 2.94-2.56 3.06-2.56 3.06-5.5 5.5-3.02 2.53-5.33 5.14-7.77 8.21-0.428 0.447-0.856 0.895-1.3 1.36h-2c-0.33 0.99-0.66 1.98-1 3-1.66 1.34-3.33 2.67-5 4-0.804 0.969-1.61 1.94-2.44 2.94-2.56 3.06-2.56 3.06-5.5 5.5-3.02 2.53-5.33 5.14-7.77 8.21-0.428 0.447-0.856 0.895-1.3 1.36h-2c-0.33 0.99-0.66 1.98-1 3-1.94 2.19-1.94 2.19-4 4h-2c-0.33 0.99-0.66 1.98-1 3-1.45 1.22-2.9 2.43-4.38 3.61-2.55 2.2-4.5 4.77-6.62 7.39-2.19 2.38-2.19 2.38-4 4h-2c-0.33 0.99-0.66 1.98-1 3-1.94 2.19-1.94 2.19-4 4h-2c-0.33 0.99-0.66 1.98-1 3-1.94 2.19-1.94 2.19-4 4h-2c-0.66 1.32-1.32 2.64-2 4h-2c-0.33 0.99-0.66 1.98-1 3-1.94 2.19-1.94 2.19-4 4h-2c-0.33 0.99-0.66 1.98-1 3-1.94 2.19-1.94 2.19-4 4h-2c-0.33 0.99-0.66 1.98-1 3-1.94 2.19-1.94 2.19-4 4h-2c-0.66 1.32-1.32 2.64-2 4h-2c-0.33 0.99-0.66 1.98-1 3-1.94 2.19-1.94 2.19-4 4h-2c-0.33 0.99-0.66 1.98-1 3-1.94 2.19-1.94 2.19-4 4h-2c-0.33 0.99-0.66 1.98-1 3h-2c-0.66 1.32-1.32 2.64-2 4h-2c-0.66 1.32-1.32 2.64-2 4h-2c-0.66 1.32-1.32 2.64-2 4h-2c-0.33 0.99-0.66 1.98-1 3h-2c-0.33 0.99-0.66 1.98-1 3-1.94 2.19-1.94 2.19-4 4h-2c-0.33 0.99-0.66 1.98-1 3h-2c-0.66 1.32-1.32 2.64-2 4h-2c-0.66 1.32-1.32 2.64-2 4h-2c-0.268 0.598-0.536 1.2-0.812 1.81-1.19 2.19-2.28 3.6-4.19 5.19h-2c-0.268 0.598-0.536 1.2-0.812 1.81-1.19 2.19-2.28 3.6-4.19 5.19h-2c-0.33 0.99-0.66 1.98-1 3h-2c-0.258 0.59-0.516 1.18-0.781 1.79-5.65 10.3-19.6 16-30.2 19.2-12.1 2.96-24.7 0.383-35.6-5.43-12.4-7.99-19.6-18.6-24.1-32.5-2.23-12.2-0.432-26 6.12-36.7 11.2-14.7 25.2-27.3 38.3-40.3 3.1-3.09 6.19-6.19 9.29-9.29 5.35-5.35 10.7-10.7 16.1-16 7.74-7.73 15.5-15.5 23.2-23.2 12.6-12.6 25.1-25.1 37.7-37.6 12.2-12.2 24.4-24.4 36.6-36.5 0.753-0.752 1.51-1.5 2.28-2.28 3.78-3.77 7.55-7.55 11.3-11.3 31.3-31.3 62.5-62.5 93.8-93.8-25.3-0.904-50.6-1.15-76-1.13-5.4 0.00191-10.8-0.0021-16.2-0.00531-9.42-0.00485-18.8-0.00615-28.3-0.00503-14 0.00162-28-0.00258-42-0.00808-6.7-0.00261-13.4-0.00498-20.1-0.00725-1.01-3.44e-4 -1.01-3.44e-4 -2.04-6.94e-4 -10.5-0.00351-20.9-0.00581-31.4-0.00737-0.705-1.05e-4 -1.41-2.11e-4 -2.14-3.19e-4 -2.86-4.24e-4 -5.72-8.42e-4 -8.58-0.00126-35.1-0.00508-70.2-0.0198-105-0.0387-8.23-0.00444-16.5-0.00875-24.7-0.0131-1.51-7.91e-4 -3.01-0.00158-4.52-0.00237-2.27-0.00119-4.53-0.00238-6.8-0.00356-3.79-0.00199-7.58-0.00398-11.4-0.00597-34.9-0.0184-69.8-0.0352-105-0.0505-2.36-0.00104-4.73-0.00208-7.09-0.00313-36.5-0.0161-72.9-0.0291-109-0.035-0.785-1.28e-4 -1.57-2.56e-4 -2.38-3.88e-4 -12.7-0.00206-25.3-0.00396-38-0.00582-36.5-0.00537-73-0.0132-109-0.0344-1.13-6.52e-4 -1.13-6.52e-4 -2.27-0.00132-15.7-0.00914-31.5-0.0191-47.2-0.0302-7.36-0.00519-14.7-0.0102-22.1-0.0151-1.09-7.28e-4 -1.09-7.28e-4 -2.2-0.00147-23.3-0.0155-46.7-0.0179-70-0.0133-24.1 0.00476-48.3-0.00431-72.4-0.0297-13.9-0.0142-27.8-0.0171-41.7-0.00416-9.29 0.00756-18.6 6.83e-4 -27.9-0.018-5.3-0.0102-10.6-0.0141-15.9-3.75e-4 -4.82 0.0124-9.64 0.00629-14.5-0.0144-1.73-0.0042-3.46-0.00176-5.19 0.00827-16.7 0.0897-29.6-3.04-42.1-14.8-9.37-9.8-14.3-21.5-14.9-35.1 0.435-13.6 6.31-25.8 15.6-35.7 14.9-13.3 31.7-14.3 50.8-14.2 1.79-0.00118 3.59-0.00323 5.38-0.00609 4.92-0.00529 9.85 0.00186 14.8 0.0111 5.36 0.00779 10.7 0.00391 16.1 0.00151 9.39-0.0026 18.8 0.0022 28.2 0.0119 14 0.0143 27.9 0.0172 41.9 0.0176 23.5 0.00102 47 0.0112 70.5 0.0265 23.3 0.0151 46.6 0.0256 69.9 0.0301 0.724 1.42e-4 1.45 2.83e-4 2.19 4.29e-4 7.35 0.00143 14.7 0.00276 22.1 0.00403 15.7 0.00271 31.4 0.00607 47.1 0.00973 0.749 1.74e-4 1.5 3.47e-4 2.27 5.26e-4 35.6 0.00831 71.3 0.0232 107 0.0391 2.36 0.00106 4.73 0.00211 7.09 0.00317 3.16 0.00141 6.31 0.00282 9.47 0.00423 7.11 0.00318 14.2 0.00635 21.3 0.00951 1.58 7.04e-4 3.17 0.00141 4.75 0.00211 36.4 0.0162 72.7 0.03 109 0.0427 2.36 8.25e-4 4.72 0.00165 7.08 0.00248 35.6 0.0125 71.1 0.0237 107 0.0326 1.51 3.79e-4 3.02 7.58e-4 4.53 0.00114 13.5 0.00337 26.9 0.00669 40.4 0.00975 8.83 0.00201 17.7 0.00409 26.5 0.00628 0.724 1.8e-4 1.45 3.59e-4 2.19 5.44e-4 24 6e-3 48 0.0165 72 0.0294 15.4 0.00825 30.8 0.016 46.2 0.0208 1.01 3.15e-4 1.01 3.15e-4 2.03 6.37e-4 7.32 0.00227 14.6 0.00427 21.9 0.00609 13.9 0.00358 27.8 0.01 41.6 0.0206 9.29 0.0068 18.6 0.00991 27.9 0.0101 5.28 2.26e-4 10.6 0.00199 15.8 0.00834 22.8 0.0264 45.5-0.161 68.3-1.11v-2c-0.558-0.232-1.12-0.464-1.69-0.703-5.94-3.34-10.9-9.39-15.1-14.7-2.08-2.68-2.08-2.68-4.69-4.62-2.5-2-2.5-2-4.94-4.94-2.47-3.14-2.47-3.14-5.56-5.56-3.11-2.59-5.42-5.4-8-8.5-0.99-0.825-1.98-1.65-3-2.5-3.1-2.59-5.43-5.4-8-8.5-1.24-0.99-1.24-0.99-2.5-2-2.41-1.93-4.18-4-6.1-6.41-2.11-2.39-4.56-4.31-7.05-6.29-0.447-0.428-0.895-0.856-1.36-1.3v-2c-0.99-0.33-1.98-0.66-3-1-2.19-1.94-2.19-1.94-4-4v-2c-0.99-0.33-1.98-0.66-3-1-1.22-1.45-2.43-2.9-3.61-4.39-2.18-2.53-4.83-4.49-7.39-6.61-1.33-1.67-2.67-3.33-4-5-0.969-0.804-1.94-1.61-2.94-2.44-3.13-2.62-5.46-5.44-8.06-8.56-0.99-0.825-1.98-1.65-3-2.5-3.11-2.59-5.42-5.4-8-8.5-0.99-0.825-1.98-1.65-3-2.5-3.1-2.59-5.43-5.4-8-8.5-0.825-0.66-1.65-1.32-2.5-2-2.5-2-2.5-2-4.94-4.94-2.47-3.14-2.47-3.14-5.56-5.56-3.11-2.59-5.42-5.4-8-8.5-0.99-0.825-1.98-1.65-3-2.5-3.11-2.59-5.42-5.4-8-8.5-0.99-0.825-1.98-1.65-3-2.5-3.1-2.59-5.43-5.4-8-8.5-0.825-0.66-1.65-1.32-2.5-2-2.5-2-2.5-2-4.94-4.94-2.47-3.14-2.47-3.14-5.56-5.56-3.11-2.59-5.42-5.4-8-8.5-0.99-0.825-1.98-1.65-3-2.5-3.1-2.59-5.43-5.4-8-8.5-0.825-0.66-1.65-1.32-2.5-2-2.5-2-2.5-2-4.94-4.94-2.47-3.14-2.47-3.14-5.56-5.56-3.11-2.59-5.42-5.4-8-8.5-0.99-0.825-1.98-1.65-3-2.5-3.11-2.59-5.42-5.4-8-8.5-2-1.67-4-3.34-6-5-0.959-1.21-0.959-1.21-1.94-2.44-2.29-2.85-4.82-4.96-7.67-7.23-0.459-0.44-0.918-0.879-1.39-1.33v-2c-0.99-0.33-1.98-0.66-3-1-1.25-1.45-2.49-2.9-3.68-4.4-1.43-1.8-1.43-1.8-3.75-3.98-9.96-10.2-14.9-22-14.9-36.2 0.239-13.1 5.79-25.1 14.6-34.8 6.66-6.32 14-10.1 22.7-12.7 0.614-0.192 1.23-0.384 1.86-0.582 12.5-2.43 26.6-0.413 37.2 6.58z"/>
</svg>
